<?xml version="1.0" encoding="iso-8859-1"?>
<!-- Uploaded to: SVG Repo, www.svgrepo.com, Generator: SVG Repo Mixer Tools -->
<!DOCTYPE svg PUBLIC "-//W3C//DTD SVG 1.1//EN" "http://www.w3.org/Graphics/SVG/1.1/DTD/svg11.dtd">
<svg fill="#000000" version="1.1" id="Capa_1" xmlns="http://www.w3.org/2000/svg" xmlns:xlink="http://www.w3.org/1999/xlink" 
	 width="800px" height="800px" viewBox="0 0 195.794 195.795"
	 xml:space="preserve">
<g>
	<g>
		<path d="M98.015,38.427c10.754,0,19.473-8.603,19.473-19.215C117.488,8.605,108.769,0,98.015,0
			C87.262,0,78.543,8.604,78.543,19.212C78.544,29.824,87.262,38.427,98.015,38.427z"/>
		<path d="M180.506,97.456l-54.213-54.233c-1.549-1.552-3.646-2.015-5.676-2.015c-11.354,0-34.086,0-45.438,0
			c-2.027,0-4.127,0.463-5.677,2.015L15.292,97.444c-2.711,2.71-2.711,7.112-0.001,9.824c1.355,1.355,3.133,2.035,4.91,2.035
			c1.775,0,3.525-0.676,4.881-2.029l49.451-49.382l0.134,127.492c0,5.751,4.668,10.412,10.418,10.412
			c5.751,0,10.419-4.661,10.419-10.412v-44.625h4.83v44.625c0,5.751,4.596,10.385,10.349,10.385h34.052
			c5.751,0,10.413-4.647,10.413-10.397c0-5.752-4.662-10.398-10.413-10.398h-21.488c-0.561,0-1.099-0.223-1.495-0.62
			c-0.396-0.396-0.619-0.935-0.618-1.494l0.132-114.965l49.403,49.383c1.355,1.354,3.146,2.033,4.92,2.033
			c1.776,0,3.561-0.679,4.915-2.035C183.211,104.564,183.217,100.168,180.506,97.456z"/>
	</g>
</g>
</svg>